# xmcd
#
# Track frame offsets:
#	150
#	14268
#	29070
#	45657
#	66774
#	85086
#	104499
#	122093
#	139382
#	154756
#	175387
#	193793
#	209192
#	229380
#	254220
#	275249
#	294750
#	314093
#
# Disc length: 4467 seconds
#
# Revision: 1
# Processed by: cddbd v1.5.2PL0 Copyright (c) Steve Scherf et al.
# Submitted via: audiograbber 1.83.01
#
DISCID=26117112
DTITLE=Виктор Салтыков - Золотые Хиты 2005
DYEAR=1900
DGENRE=
TTITLE0=Все, что я так люблю
TTITLE1=Берега любви
TTITLE2=Камешки
TTITLE3=Кони в яблоках
TTITLE4=Белая ночь
TTITLE5=Улетели листья
TTITLE6=Островок
TTITLE7=Небо стало серым
TTITLE8=Что сравнится с юностью
TTITLE9=Никогда
TTITLE10=Нежные локоны
TTITLE11=Летняя ночь
TTITLE12=Осень
TTITLE13=Давайте созвонимся
TTITLE14=Я так тебя люблю
TTITLE15=Клоун
TTITLE16=Шаг за шагом
TTITLE17=Магазин игрушек
EXTD=
EXTT0=
EXTT1=
EXTT2=
EXTT3=
EXTT4=
EXTT5=
EXTT6=
EXTT7=
EXTT8=
EXTT9=
EXTT10=
EXTT11=
EXTT12=
EXTT13=
EXTT14=
EXTT15=
EXTT16=
EXTT17=
PLAYORDER=
